<svg width="53" height="52" viewBox="0 0 53 52" fill="none" xmlns="http://www.w3.org/2000/svg">
<path d="M46.2712 0C49.9894 0 52.8814 2.8628 52.8814 6.44131V35.785C52.8814 39.2613 49.8861 42.2264 46.2712 42.2264H31.3983L18.4878 51.735C17.6615 52.3484 16.5254 51.8372 16.5254 50.8148V42.2264H6.61017C2.89195 42.2264 0 39.3636 0 35.785V6.44131C0 2.8628 2.89195 0 6.61017 0H46.2712ZM24.7881 23.6181V17.0746C24.7881 14.0073 22.206 11.5535 19.0042 11.5535C15.8024 11.5535 13.2203 14.1095 13.2203 17.1768C13.2203 20.2441 15.8024 22.8002 19.0042 22.8002C19.3141 22.8002 19.6239 22.8002 19.9338 22.8002V23.6181C19.9338 25.0495 18.7977 26.072 17.455 26.072C16.009 26.072 14.9762 27.1966 14.9762 28.5258C14.9762 29.9572 16.009 30.9796 17.455 30.9796C21.3798 30.9796 24.7881 27.7079 24.7881 23.6181ZM39.661 23.6181V17.1768C39.661 14.1095 37.0789 11.5535 33.8771 11.5535C30.7786 11.5535 28.0932 14.1095 28.0932 17.1768C28.0932 20.2441 30.7786 22.9024 33.8771 22.9024C34.187 22.9024 34.4968 22.8002 34.8067 22.8002V23.6181C34.8067 25.0495 33.6706 26.072 32.3279 26.072C30.8819 26.072 29.849 27.1966 29.849 28.5258C29.849 29.9572 30.8819 30.9796 32.2246 30.9796C36.2526 30.9796 39.661 27.7079 39.661 23.6181Z" fill="#B3C7F9"/>
</svg>
